<svg xmlns="http://www.w3.org/2000/svg" viewBox="0 0 70 70"><title>GetReady_dis</title><g id="Layer_2" data-name="Layer 2"><g id="Layer_1-2" data-name="Layer 1"><rect id="_Rectangle_" data-name="&lt;Rectangle&gt;" width="70" height="70" fill="none"/><g id="_Group_" data-name="&lt;Group&gt;"><circle cx="35" cy="35" r="34" fill="#dfe0e0"/><path d="M35,2A33,33,0,1,1,2,35,33,33,0,0,1,35,2m0-2A35,35,0,1,0,70,35,35,35,0,0,0,35,0Z" fill="#aaabab"/></g><g id="_Group_2" data-name="&lt;Group&gt;"><rect x="32.28" y="16" width="5.43" height="10.86" rx="1" ry="1" fill="#aaabab"/></g><g id="_Group_3" data-name="&lt;Group&gt;"><rect x="32.28" y="43.14" width="5.43" height="10.86" rx="1" ry="1" fill="#aaabab"/></g><g id="_Group_4" data-name="&lt;Group&gt;"><rect x="43.14" y="32.28" width="10.86" height="5.43" rx="1" ry="1" fill="#aaabab"/></g><g id="_Group_5" data-name="&lt;Group&gt;"><rect x="16" y="32.28" width="10.86" height="5.43" rx="1" ry="1" fill="#aaabab"/></g><g id="_Group_6" data-name="&lt;Group&gt;"><path d="M43.39,39.56a1,1,0,0,0-1.42,0L39.55,42a1,1,0,0,0,0,1.41l6.26,6.26a1,1,0,0,0,1.41,0l2.43-2.42a1,1,0,0,0,0-1.41Z" fill="#aaabab"/></g><g id="_Group_7" data-name="&lt;Group&gt;"><path d="M26.62,30.48a1,1,0,0,0,1.41,0l2.43-2.42a1,1,0,0,0,0-1.41L24.2,20.39a1,1,0,0,0-1.41,0l-2.43,2.42a1,1,0,0,0,0,1.41Z" fill="#aaabab"/></g><g id="_Group_8" data-name="&lt;Group&gt;"><path d="M28.05,39.56a1,1,0,0,0-1.42,0l-6.25,6.26a1,1,0,0,0,0,1.42l2.41,2.42a1,1,0,0,0,1.42,0l6.26-6.26a1,1,0,0,0,0-1.41Z" fill="#aaabab"/></g><g id="_Group_9" data-name="&lt;Group&gt;"><path d="M42,30.48a1,1,0,0,0,1.41,0l6.26-6.26a1,1,0,0,0,0-1.42l-2.42-2.42a1,1,0,0,0-1.42,0l-6.25,6.26a1,1,0,0,0,0,1.41Z" fill="#aaabab"/></g></g></g></svg>