<svg xmlns="http://www.w3.org/2000/svg" xmlns:xlink="http://www.w3.org/1999/xlink" width="21" height="40" viewBox="0 0 21 40">
    <defs>
        <linearGradient id="b" x1="50%" x2="50%" y1="0%" y2="100%">
            <stop offset="0%" stop-color="#FFF"/>
            <stop offset="100%" stop-color="#FFF" stop-opacity="0"/>
        </linearGradient>
        <path id="a" d="M8 0h12a1 1 0 0 1 1 1v38a1 1 0 0 1-1 1H8a8 8 0 0 1-8-8V8a8 8 0 0 1 8-8z"/>
    </defs>
    <g fill="none" fill-rule="evenodd">
        <use fill="#021830" xlink:href="#a"/>
        <use fill="#FFD200" fill-opacity=".3" xlink:href="#a"/>
        <path fill="url(#b)" fill-opacity=".2" stroke="#FFD200" stroke-linejoin="square" stroke-opacity=".5" d="M8 .5A7.5 7.5 0 0 0 .5 8v24A7.5 7.5 0 0 0 8 39.5h12a.5.5 0 0 0 .5-.5V1a.5.5 0 0 0-.5-.5H8z"/>
        <g fill="#FFD200" opacity=".6" transform="translate(7 12)">
            <circle cx="6" cy="1" r="1"/>
            <circle cx="6" cy="6" r="1"/>
            <circle cx="6" cy="11" r="1"/>
            <circle cx="1" cy="1" r="1"/>
            <circle cx="1" cy="6" r="1"/>
            <circle cx="1" cy="11" r="1"/>
            <circle cx="6" cy="16" r="1"/>
            <circle cx="1" cy="16" r="1"/>
        </g>
    </g>
</svg>
