<svg xmlns="http://www.w3.org/2000/svg" xmlns:xlink="http://www.w3.org/1999/xlink" width="16" height="16" viewBox="0 0 16 16">
    <defs>
        <path id="a" d="M8 16c3.866 0 7-2.582 7-7S8 0 8 0 1 4.582 1 9s3.134 7 7 7zm.489-14.419c.79.6 1.58 1.268 2.315 1.98 1.855 1.8 3.017 3.566 3.177 5.087.013.12.019.236.019.352 0 3.662-2.472 6-6 6s-6-2.338-6-6c0-.116.006-.233.019-.352.16-1.52 1.322-3.287 3.177-5.087A25.48 25.48 0 0 1 8 1.219c.154.111.318.232.489.362z"/>
    </defs>
    <use fill="#73B7FF" fill-rule="nonzero" xlink:href="#a"/>
</svg>
