<svg xmlns="http://www.w3.org/2000/svg" xmlns:xlink="http://www.w3.org/1999/xlink" width="36" height="36" viewBox="0 0 36 36">
    <defs>
        <linearGradient id="b" x1="50%" x2="50%" y1="1.006%" y2="100%">
            <stop offset="0%" stop-color="#5FCEFF"/>
            <stop offset="100%" stop-color="#5FCEFF" stop-opacity=".1"/>
        </linearGradient>
        <path id="a" d="M18 36c8.284 0 15-6.716 15-15 0-5.275-4.561-11.898-13.684-19.868a2 2 0 0 0-2.632 0C7.561 9.102 3 15.725 3 21c0 8.284 6.716 15 15 15z"/>
        <text id="d" fill="#C0EBFF" font-family="Roboto-Bold, Roboto" font-size="16" font-weight="bold">
            <tspan x="12.766" y="26">C</tspan>
        </text>
        <filter id="c" width="209.1%" height="163.2%" x="-54.5%" y="-31.6%" filterUnits="objectBoundingBox">
            <feOffset in="SourceAlpha" result="shadowOffsetOuter1"/>
            <feGaussianBlur in="shadowOffsetOuter1" result="shadowBlurOuter1" stdDeviation="2"/>
            <feColorMatrix in="shadowBlurOuter1" values="0 0 0 0 0 0 0 0 0 0 0 0 0 0 0 0 0 0 0.3 0"/>
        </filter>
    </defs>
    <g fill="none" fill-rule="evenodd">
        <g fill-rule="nonzero">
            <use fill="#5DCDFF" fill-opacity=".5" xlink:href="#a"/>
            <path fill="url(#b)" fill-rule="evenodd" stroke="#5DCDFF" stroke-linejoin="square" stroke-width="2" d="M18 35c7.732 0 14-6.268 14-14 0-4.903-4.42-11.32-13.342-19.115a1 1 0 0 0-1.316 0C8.42 9.681 4 16.097 4 21c0 7.732 6.268 14 14 14z"/>
        </g>
        <g fill="#C0EBFF">
            <use filter="url(#c)" xlink:href="#d"/>
            <use xlink:href="#d"/>
        </g>
    </g>
</svg>
