<svg xmlns="http://www.w3.org/2000/svg" xmlns:xlink="http://www.w3.org/1999/xlink" width="16" height="16" viewBox="0 0 16 16">
    <defs>
        <path id="a" d="M0 0h16v16H0z"/>
    </defs>
    <g fill="none" fill-rule="evenodd">
        <mask id="b" fill="#fff">
            <use xlink:href="#a"/>
        </mask>
        <g fill="#73B7FF" fill-rule="nonzero" mask="url(#b)">
            <path d="M11.662.349l3.96 3.96a1.2 1.2 0 0 1 0 1.696l-9.617 9.617a1.2 1.2 0 0 1-1.697 0l-3.96-3.96a1.2 1.2 0 0 1 0-1.697L9.966.35a1.2 1.2 0 0 1 1.697 0zm-.707.707a.2.2 0 0 0-.283 0l-9.616 9.616a.2.2 0 0 0 0 .283l3.96 3.96a.2.2 0 0 0 .282 0l9.617-9.617a.2.2 0 0 0 0-.283l-3.96-3.96z"/>
            <path d="M9.268 1.697l3.182 3.182a.5.5 0 0 1-.707.707L8.56 2.404l.707-.707zM7.146 3.818l1.768 1.768a.5.5 0 0 1-.707.707L6.44 4.525l.707-.707zM5.025 5.94L8.207 9.12a.5.5 0 0 1-.707.707L4.318 6.646l.707-.707zM2.904 8.06l1.768 1.768a.5.5 0 1 1-.708.708L2.197 8.768l.707-.707z"/>
        </g>
    </g>
</svg>
