<svg xmlns="http://www.w3.org/2000/svg" xmlns:xlink="http://www.w3.org/1999/xlink" width="32" height="32" viewBox="0 0 32 32">
    <defs>
        <path id="a" d="M0 0h32v32H0z"/>
        <path id="c" d="M21.468 0c.79 0 1.454.653 1.526 1.505l.006.153v13.414L21 17V2H2v28h19v-1.894l2-1.966v4.202c0 .874-.621 1.576-1.394 1.651l-.138.007H1.532c-.79 0-1.454-.653-1.526-1.505L0 30.342V1.658C0 .784.621.082 1.394.007L1.532 0h19.936zM16.77 23.552l3.238 3.238-.876.877a.68.68 0 0 1-.257.16l-.086.03-2.933.686a.691.691 0 0 1-.853-.74l.015-.098.685-2.934a.75.75 0 0 1 .134-.278l.057-.064.876-.877zm8.726-8.712l3.233 3.232-7.622 7.624-3.233-3.232 7.622-7.624zM14 21a1 1 0 0 1 0 2H6a1 1 0 0 1 0-2h8zm3-5a1 1 0 0 1 0 2H6a1 1 0 0 1 0-2h11zm11.99-3.872l.085.072 2.286 2.286c.24.24.264.634.072.877l-.072.075-1.524 1.524-3.238-3.238 1.523-1.524a.666.666 0 0 1 .869-.072zM17 11a1 1 0 0 1 0 2H6a1 1 0 0 1 0-2h11zm0-5a1 1 0 0 1 0 2H6a1 1 0 1 1 0-2h11z"/>
    </defs>
    <g fill="none" fill-rule="evenodd">
        <mask id="b" fill="#fff">
            <use xlink:href="#a"/>
        </mask>
        <g mask="url(#b)">
            <use fill="#73B7FF" fill-rule="nonzero" xlink:href="#c"/>
        </g>
    </g>
</svg>
