<svg xmlns="http://www.w3.org/2000/svg" xmlns:xlink="http://www.w3.org/1999/xlink" width="32" height="32" viewBox="0 0 32 32">
    <defs>
        <path id="a" d="M15 3c7.732 0 14 6.268 14 14s-6.268 14-14 14S1 24.732 1 17 7.268 3 15 3zm0 2C8.373 5 3 10.373 3 17s5.373 12 12 12 12-5.373 12-12S21.627 5 15 5zm0 7a1 1 0 0 1 1 1v3.921l2.659 2.326a1 1 0 0 1-1.318 1.506l-3-2.626a1 1 0 0 1-.341-.752V13a1 1 0 0 1 1-1zM23.879.464l5.657 5.657a1 1 0 1 1-1.415 1.415l-5.657-5.657A1 1 0 1 1 23.88.464zm-16.343 0a1 1 0 0 1 0 1.415L1.879 7.536A1 1 0 0 1 .464 6.12L6.121.464a1 1 0 0 1 1.415 0z"/>
    </defs>
    <use fill="#73B7FF" fill-rule="nonzero" transform="translate(1 1)" xlink:href="#a"/>
</svg>
