<svg xmlns="http://www.w3.org/2000/svg" xmlns:xlink="http://www.w3.org/1999/xlink" width="32" height="32" viewBox="0 0 32 32">
    <defs>
        <path id="a" d="M0 0h32v32H0z"/>
        <path id="c" d="M1 19a1 1 0 0 1 .993.883L2 20v5a2 2 0 0 0 1.85 1.995L4 27h20a2 2 0 0 0 1.995-1.85L26 25v-4a1 1 0 0 1 1.993-.117L28 21v4a4 4 0 0 1-3.8 3.995L24 29H4a4 4 0 0 1-3.995-3.8L0 25v-5a1 1 0 0 1 1-1zm7.069-4.926a.886.886 0 0 1 .18.939.832.832 0 0 1-.768.532.816.816 0 0 1-.587-.253L.244 8.393a.885.885 0 0 1 0-1.219l6.65-6.9a.812.812 0 0 1 .814-.247.847.847 0 0 1 .6.622.883.883 0 0 1-.24.844L2.848 6.91h6.32c5.98.006 10.827 5.03 10.833 11.227 0 .477-.373.864-.833.864-.46 0-.834-.387-.834-.864-.006-5.244-4.106-9.493-9.166-9.5h-6.34l5.242 5.438z"/>
    </defs>
    <g fill="none" fill-rule="evenodd">
        <mask id="b" fill="#fff">
            <use xlink:href="#a"/>
        </mask>
        <g mask="url(#b)">
            <use fill="#73B7FF" fill-rule="nonzero" transform="matrix(-1 0 0 1 30 2)" xlink:href="#c"/>
        </g>
    </g>
</svg>
