<?xml version="1.0" encoding="UTF-8"?>
<svg width="26px" height="24px" viewBox="0 0 26 24" version="1.1" xmlns="http://www.w3.org/2000/svg" xmlns:xlink="http://www.w3.org/1999/xlink">
    <!-- Generator: Sketch 61 (89581) - https://sketch.com -->
    <desc>Created with Sketch.</desc>
    <g id="Page-1" stroke="none" stroke-width="1" fill="none" fill-rule="evenodd">
        <g id="held-copy-2">
            <circle id="Oval" stroke="#D8EBFF" stroke-width="2" cx="13" cy="13" r="10"></circle>
            <path d="M12.783331,9 C13.2619764,9 13.6499953,9.34822244 13.6499953,9.77777659 L13.6499953,12.8275704 L15.9540349,14.636883 C16.3142482,14.9197507 16.3507426,15.4111213 16.0355476,15.73439 C15.7203526,16.0576587 15.172826,16.0904102 14.8126127,15.8075425 L12.2126199,13.7658242 C12.024546,13.6181339 11.9166667,13.4047726 11.9166667,13.1804945 L11.9166667,9.77777659 C11.9166667,9.34822244 12.3046855,9 12.783331,9 Z" id="Path" fill="#D8EBFF" fill-rule="nonzero"></path>
            <path d="M20.9491844,0.229514531 L25.7513593,4.66229128 C26.0828802,4.96831066 26.0828802,5.46446609 25.7513593,5.77048547 C25.4198383,6.07650484 24.8823365,6.07650484 24.5508156,5.77048547 L19.7486407,1.33770872 C19.4171198,1.03168934 19.4171198,0.535533906 19.7486407,0.229514531 C20.0801617,-0.0765048437 20.6176635,-0.0765048437 20.9491844,0.229514531 Z" id="Path" fill="#D8EBFF" fill-rule="nonzero"></path>
            <path d="M6.25135926,0.229514531 C6.58288025,0.535533906 6.58288025,1.03168934 6.25135926,1.33770872 L1.44918445,5.77048547 C1.11766346,6.07650484 0.580161731,6.07650484 0.248640742,5.77048547 C-0.0828802473,5.46446609 -0.0828802473,4.96831066 0.248640742,4.66229128 L5.05081555,0.229514531 C5.38233654,-0.0765048437 5.91983827,-0.0765048437 6.25135926,0.229514531 Z" id="Path" fill="#D8EBFF" fill-rule="nonzero"></path>
        </g>
    </g>
</svg>