<?xml version="1.0" encoding="UTF-8"?>
<svg width="24px" height="16px" viewBox="0 0 24 16" version="1.1" xmlns="http://www.w3.org/2000/svg" xmlns:xlink="http://www.w3.org/1999/xlink">
    <!-- Generator: Sketch 61 (89581) - https://sketch.com -->
    <desc>Created with Sketch.</desc>
    <defs>
        <path d="M11.9997568,0 C18.5244694,0 23.6331917,7.20533333 23.8472443,7.512 C24.0509186,7.80266667 24.0509186,8.19733333 23.8472443,8.48866667 C23.6331917,8.79466667 18.5244694,16 11.9997568,16 C5.47504409,16 0.366970493,8.79466667 0.152269241,8.488 C-0.0507564138,8.19733333 -0.0507564138,7.80266667 0.152269241,7.51133333 C0.366970493,7.20533333 5.47504409,0 11.9997568,0 Z M11.9996693,1.6 C7.0894859,1.6 2.85449401,6.42101503 1.6,7.99932752 C2.85581662,9.57629505 7.10006677,14.4 11.9996693,14.4 C16.9098528,14.4 21.1448447,9.57898497 22.4,8.00067248 C21.1428608,6.42303247 16.8992719,1.6 11.9996693,1.6 Z M11.9997202,4 C14.2056367,4 15.9999935,5.79418675 15.9999935,7.99973149 C15.9999935,10.2052762 14.2056367,12 11.9997202,12 C9.79435028,12 7.99999351,10.2052762 7.99999351,7.99973149 C7.99999351,5.79418675 9.79435028,4 11.9997202,4 Z M11.9999935,5.33333333 C10.5965763,5.33333333 9.45453897,6.52931897 9.45453897,7.99973148 C9.45453897,9.47068103 10.5965763,10.6666667 11.9999935,10.6666667 C13.4034108,10.6666667 14.5454481,9.47068103 14.5454481,7.99973148 C14.5454481,6.52931897 13.4034108,5.33333333 11.9999935,5.33333333 Z" id="path-1"></path>
    </defs>
    <g id="Page-1" stroke="none" stroke-width="1" fill="none" fill-rule="evenodd">
        <mask id="mask-2" fill="white">
            <use xlink:href="#path-1"></use>
        </mask>
        <use id="preview-copy-2" fill="#D8EBFF" fill-rule="nonzero" xlink:href="#path-1"></use>
    </g>
</svg>