<?xml version="1.0" encoding="UTF-8"?>
<svg width="8px" height="16px" viewBox="0 0 8 16" version="1.1" xmlns="http://www.w3.org/2000/svg" xmlns:xlink="http://www.w3.org/1999/xlink">
    <!-- Generator: Sketch 61 (89581) - https://sketch.com -->
    <desc>Created with Sketch.</desc>
    <g id="Page-1" stroke="none" stroke-width="1" fill="none" fill-rule="evenodd">
        <path d="M6.8,0 C7.4627417,0 8,0.5372583 8,1.2 L8,14.8 C8,15.4627417 7.4627417,16 6.8,16 L1.2,16 C0.5372583,16 0,15.4627417 0,14.8 L0,1.2 C0,0.5372583 0.5372583,0 1.2,0 L6.8,0 Z M6.8,1 L1.2,1 C1.08954305,1 1,1.08954305 1,1.2 L1,2.646 L4.96015511,2.64644661 C5.23629748,2.64644661 5.46015511,2.87030423 5.46015511,3.14644661 C5.46015511,3.42258898 5.23629748,3.64644661 4.96015511,3.64644661 L1,3.646 L1,5.646 L2.96015511,5.64644661 C3.23629748,5.64644661 3.46015511,5.87030423 3.46015511,6.14644661 C3.46015511,6.42258898 3.23629748,6.64644661 2.96015511,6.64644661 L1,6.646 L1,8.646 L4.96015511,8.64644661 C5.23629748,8.64644661 5.46015511,8.87030423 5.46015511,9.14644661 C5.46015511,9.42258898 5.23629748,9.64644661 4.96015511,9.64644661 L1,9.646 L1,11.646 L2.96015511,11.6464466 C3.23629748,11.6464466 3.46015511,11.8703042 3.46015511,12.1464466 C3.46015511,12.422589 3.23629748,12.6464466 2.96015511,12.6464466 L1,12.646 L1,14.8 C1,14.9104569 1.08954305,15 1.2,15 L6.8,15 C6.91045695,15 7,14.9104569 7,14.8 L7,1.2 C7,1.08954305 6.91045695,1 6.8,1 Z" id="Shape-Copy-4" fill="#73B7FF" fill-rule="nonzero"></path>
    </g>
</svg>