<?xml version="1.0" encoding="UTF-8"?>
<svg width="122px" height="80px" viewBox="0 0 122 80" version="1.1" xmlns="http://www.w3.org/2000/svg" xmlns:xlink="http://www.w3.org/1999/xlink">
    <!-- Generator: Sketch 61 (89581) - https://sketch.com -->
    <desc>Created with Sketch.</desc>
    <defs>
        <linearGradient x1="50%" y1="0%" x2="50%" y2="100%" id="linearGradient-1">
            <stop stop-color="#FFFFFF" offset="0%"></stop>
            <stop stop-color="#FFFFFF" stop-opacity="0" offset="100%"></stop>
        </linearGradient>
        <rect id="path-2" x="0" y="0" width="106" height="64" rx="8"></rect>
        <filter x="-12.3%" y="-17.2%" width="124.5%" height="140.6%" filterUnits="objectBoundingBox" id="filter-3">
            <feOffset dx="0" dy="2" in="SourceAlpha" result="shadowOffsetOuter1"></feOffset>
            <feGaussianBlur stdDeviation="4" in="shadowOffsetOuter1" result="shadowBlurOuter1"></feGaussianBlur>
            <feComposite in="shadowBlurOuter1" in2="SourceAlpha" operator="out" result="shadowBlurOuter1"></feComposite>
            <feColorMatrix values="0 0 0 0 0   0 0 0 0 0   0 0 0 0 0  0 0 0 0.2 0" type="matrix" in="shadowBlurOuter1"></feColorMatrix>
        </filter>
    </defs>
    <g id="Page-1" stroke="none" stroke-width="1" fill="none" fill-rule="evenodd">
        <g id="1" transform="translate(8.000000, 6.000000)">
            <g id="bg-copy-36">
                <use fill="black" fill-opacity="1" filter="url(#filter-3)" xlink:href="#path-2"></use>
                <use fill="#005BB1" fill-rule="evenodd" xlink:href="#path-2"></use>
                <rect stroke-opacity="0.7" stroke="#CCE5FF" stroke-width="2" stroke-linejoin="square" fill-opacity="0.3" fill="url(#linearGradient-1)" fill-rule="evenodd" x="1" y="1" width="104" height="62" rx="8"></rect>
            </g>
            <path d="M48.5285995,35.3123719 L43.0635995,35.3123719 L42.5645995,35.3123719 C40.9185995,35.3123719 40.5055995,34.3150138 41.6405995,33.0867101 L41.9845995,32.7137227 L52.6685995,21.152135 C52.8575995,20.9477584 53.1665995,20.950824 53.3525995,21.152135 L64.0175995,32.7147446 L64.3605995,33.0867101 C65.4945995,34.3160357 65.0795995,35.3123719 63.4355995,35.3123719 L62.9375995,35.3123719 L57.4715995,35.3123719 L58.9625995,33.7744376 L58.9625995,41.9781167 C58.9625995,42.5421963 58.5165995,43 57.9665995,43 L48.0345995,43 C47.4845995,43 47.0385995,42.5432182 47.0385995,41.9781167 L47.0385995,33.7744376 L48.5285995,35.3123719 Z M48.5285995,33.7744376 L48.5285995,40.9470365 C48.5285995,41.2321419 48.7495995,41.4641094 49.0225995,41.4641094 L56.9785995,41.4641094 C57.2515995,41.4641094 57.4715995,41.2331638 57.4715995,40.9470365 L57.4715995,33.7744376 L62.6885995,33.7744376 C62.8265995,33.7744376 62.8635995,33.6947307 62.7645995,33.5884548 L53.0095995,23.0109408 L43.2365995,33.5884548 C43.1405995,33.691665 43.1775995,33.7744376 43.3125995,33.7744376 L48.5285995,33.7744376 Z" id="Fill-1" fill="#D8EBFF"></path>
        </g>
    </g>
</svg>