<?xml version="1.0" encoding="UTF-8"?>
<svg width="438px" height="117px" viewBox="0 0 438 117" version="1.1" xmlns="http://www.w3.org/2000/svg" xmlns:xlink="http://www.w3.org/1999/xlink">
    <!-- Generator: Sketch 61 (89581) - https://sketch.com -->
    <desc>Created with Sketch.</desc>
    <defs>
        <linearGradient x1="50%" y1="0%" x2="50%" y2="100%" id="linearGradient-1">
            <stop stop-color="#73B7FF" offset="0.451330236%"></stop>
            <stop stop-color="#73B7FF" stop-opacity="0" offset="100%"></stop>
        </linearGradient>
        <radialGradient cx="50%" cy="95.1020421%" fx="50%" fy="95.1020421%" r="31.9661461%" gradientTransform="translate(0.500000,0.951020),scale(0.150794,1.000000),rotate(90.000000),scale(1.000000,14.912565),translate(-0.500000,-0.951020)" id="radialGradient-2">
            <stop stop-color="#77B9FF" offset="0.0554265203%"></stop>
            <stop stop-color="#62AFFF" stop-opacity="0" offset="100%"></stop>
        </radialGradient>
        <linearGradient x1="50%" y1="0%" x2="50%" y2="25.4110577%" id="linearGradient-3">
            <stop stop-color="#D8EBFF" offset="0%"></stop>
            <stop stop-color="#D8EBFF" stop-opacity="0" offset="100%"></stop>
        </linearGradient>
        <rect id="path-4" x="0" y="0" width="378" height="57" rx="8"></rect>
        <filter x="-12.3%" y="-76.3%" width="124.6%" height="263.2%" filterUnits="objectBoundingBox" id="filter-5">
            <feOffset dx="0" dy="3" in="SourceAlpha" result="shadowOffsetOuter1"></feOffset>
            <feGaussianBlur stdDeviation="15" in="shadowOffsetOuter1" result="shadowBlurOuter1"></feGaussianBlur>
            <feComposite in="shadowBlurOuter1" in2="SourceAlpha" operator="out" result="shadowBlurOuter1"></feComposite>
            <feColorMatrix values="0 0 0 0 0   0 0 0 0 0   0 0 0 0 0  0 0 0 0.5 0" type="matrix" in="shadowBlurOuter1"></feColorMatrix>
        </filter>
        <path d="M83.9997568,5 C90.5244694,5 95.6331917,12.2053333 95.8472443,12.512 C96.0509186,12.8026667 96.0509186,13.1973333 95.8472443,13.4886667 C95.6331917,13.7946667 90.5244694,21 83.9997568,21 C77.4750441,21 72.3669705,13.7946667 72.1522692,13.488 C71.9492436,13.1973333 71.9492436,12.8026667 72.1522692,12.5113333 C72.3669705,12.2053333 77.4750441,5 83.9997568,5 Z M83.9996693,6.6 C79.0894859,6.6 74.854494,11.421015 73.6,12.9993275 C74.8558166,14.5762951 79.1000668,19.4 83.9996693,19.4 C88.9098528,19.4 93.1448447,14.578985 94.4,13.0006725 C93.1428608,11.4230325 88.8992719,6.6 83.9996693,6.6 Z M83.9997202,9 C86.2056367,9 87.9999935,10.7941867 87.9999935,12.9997315 C87.9999935,15.2052762 86.2056367,17 83.9997202,17 C81.7943503,17 79.9999935,15.2052762 79.9999935,12.9997315 C79.9999935,10.7941867 81.7943503,9 83.9997202,9 Z M83.9999935,10.3333333 C82.5965763,10.3333333 81.454539,11.529319 81.454539,12.9997315 C81.454539,14.470681 82.5965763,15.6666667 83.9999935,15.6666667 C85.4034108,15.6666667 86.5454481,14.470681 86.5454481,12.9997315 C86.5454481,11.529319 85.4034108,10.3333333 83.9999935,10.3333333 Z" id="path-6"></path>
        <path d="M302.857143,1 C303.646121,1 304.285714,1.64359067 304.285714,2.4375 L304.285714,3.875 L307.857143,3.875 C309.04061,3.875 310,4.84038601 310,6.03125 L310,8.90625 C310,9.30320466 309.680203,9.625 309.285714,9.625 L307.857143,9.625 L307.857143,22.5625 C307.857143,23.3564093 307.21755,24 306.428571,24 L293.571429,24 C292.78245,24 292.142857,23.3564093 292.142857,22.5625 L292.142857,9.625 L290.714286,9.625 C290.319797,9.625 290,9.30320466 290,8.90625 L290,6.03125 C290,4.84038601 290.95939,3.875 292.142857,3.875 L295.714286,3.875 L295.714286,2.4375 C295.714286,1.64359067 296.353879,1 297.142857,1 L302.857143,1 Z M306.428571,9.625 L293.571429,9.625 L293.571429,22.5625 L306.428571,22.5625 L306.428571,9.625 Z M307.857143,5.3125 L292.142857,5.3125 C291.748368,5.3125 291.428571,5.63429534 291.428571,6.03125 L291.428571,8.1875 L308.571429,8.1875 L308.571429,6.03125 C308.571429,5.63429534 308.251632,5.3125 307.857143,5.3125 Z M296.428571,11.78125 C296.823061,11.78125 297.142857,12.1010466 297.142857,12.4955357 L297.142857,19.6919643 C297.142857,20.0864534 296.823061,20.40625 296.428571,20.40625 C296.034082,20.40625 295.714286,20.0864534 295.714286,19.6919643 L295.714286,12.4955357 C295.714286,12.1010466 296.034082,11.78125 296.428571,11.78125 Z M300,11.78125 C300.394489,11.78125 300.714286,12.1010466 300.714286,12.4955357 L300.714286,19.6919643 C300.714286,20.0864534 300.394489,20.40625 300,20.40625 C299.605511,20.40625 299.285714,20.0864534 299.285714,19.6919643 L299.285714,12.4955357 C299.285714,12.1010466 299.605511,11.78125 300,11.78125 Z M303.571429,11.78125 C303.965918,11.78125 304.285714,12.1010466 304.285714,12.4955357 L304.285714,19.6919643 C304.285714,20.0864534 303.965918,20.40625 303.571429,20.40625 C303.176939,20.40625 302.857143,20.0864534 302.857143,19.6919643 L302.857143,12.4955357 C302.857143,12.1010466 303.176939,11.78125 303.571429,11.78125 Z M302.857143,2.4375 L302.857143,3.875 L297.142857,3.875 L297.142857,2.4375 L302.857143,2.4375 Z" id="path-8"></path>
    </defs>
    <g id="Page-1" stroke="none" stroke-width="1" fill="none" fill-rule="evenodd">
        <g id="actions" transform="translate(30.000000, 27.000000)">
            <g id="bg">
                <use fill="black" fill-opacity="1" filter="url(#filter-5)" xlink:href="#path-4"></use>
                <use fill="#1C5089" fill-rule="evenodd" xlink:href="#path-4"></use>
                <use fill-opacity="0.5" fill="url(#linearGradient-1)" fill-rule="evenodd" xlink:href="#path-4"></use>
                <use fill-opacity="0.4" fill="url(#radialGradient-2)" fill-rule="evenodd" xlink:href="#path-4"></use>
                <rect stroke="#73B7FF" stroke-width="2" stroke-linejoin="square" fill-opacity="0.3" fill="url(#linearGradient-3)" fill-rule="evenodd" x="1" y="1" width="376" height="55" rx="8"></rect>
            </g>
            <g transform="translate(34.000000, 16.000000)">
                <g id="export-copy" transform="translate(218.000000, 3.000000)" fill="#D8EBFF" fill-rule="nonzero" stroke="#D8EBFF" stroke-width="0.2">
                    <path d="M0.75,14 C1.13462688,14 1.45163037,14.2895301 1.4949542,14.6625342 L1.5,14.75 L1.5,18.5 C1.5,19.2907713 2.11190834,19.9386238 2.88805324,19.9958857 L3,20 L18,20 C18.7907713,20 19.4386238,19.3880917 19.4958857,18.6119468 L19.5,18.5 L19.5,15.5 C19.5,15.0857864 19.8357864,14.75 20.25,14.75 C20.6346269,14.75 20.9516304,15.0395301 20.9949542,15.4125342 L21,15.5 L21,18.5 C21,20.1066465 19.7370236,21.4183092 18.1497303,21.4963285 L18,21.5 L3,21.5 C1.39335346,21.5 0.081690843,20.2370236 0.00367148043,18.6497303 L0,18.5 L0,14.75 C0,14.3357864 0.335786438,14 0.75,14 Z" id="Path"></path>
                    <path d="M15.0515377,10.5551678 C15.2296256,10.7401498 15.2828623,11.0181619 15.1864519,11.2597153 C15.0900414,11.5012687 14.8629435,11.658861 14.6109326,11.6590909 C14.4456263,11.6589399 14.2871437,11.5906929 14.1703274,11.4693541 L9.18234407,6.29471469 C8.93921864,6.04217715 8.93921864,5.63306592 9.18234407,5.38052839 L14.1703274,0.205888944 C14.3257617,0.0328376364 14.5598519,-0.0383964535 14.7807642,0.0201318576 C15.0016764,0.0786601686 15.1741772,0.257616128 15.2305943,0.486795188 C15.2870114,0.715974247 15.2183469,0.958824356 15.0515377,1.12007525 L11.13525,5.18175 L15.875,5.18181818 C20.3604096,5.18657857 23.9954066,8.95375734 24,13.6022727 C24,13.9600026 23.720178,14.25 23.375,14.25 C23.029822,14.25 22.75,13.9600026 22.75,13.6022727 C22.7454083,9.66921669 19.6700541,6.48203142 15.875,6.47727273 L11.12025,6.477 L15.0515377,10.5551678 Z" id="Path" transform="translate(16.500000, 7.125000) scale(-1, 1) translate(-16.500000, -7.125000) "></path>
                </g>
                <g id="held-copy" transform="translate(144.000000, 0.000000)">
                    <circle id="Oval" stroke="#D8EBFF" stroke-width="2" cx="13" cy="13" r="10"></circle>
                    <path d="M12.783331,9 C13.2619764,9 13.6499953,9.34822244 13.6499953,9.77777659 L13.6499953,12.8275704 L15.9540349,14.636883 C16.3142482,14.9197507 16.3507426,15.4111213 16.0355476,15.73439 C15.7203526,16.0576587 15.172826,16.0904102 14.8126127,15.8075425 L12.2126199,13.7658242 C12.024546,13.6181339 11.9166667,13.4047726 11.9166667,13.1804945 L11.9166667,9.77777659 C11.9166667,9.34822244 12.3046855,9 12.783331,9 Z" id="Path" fill="#D8EBFF" fill-rule="nonzero"></path>
                    <path d="M20.9491844,0.229514531 L25.7513593,4.66229128 C26.0828802,4.96831066 26.0828802,5.46446609 25.7513593,5.77048547 C25.4198383,6.07650484 24.8823365,6.07650484 24.5508156,5.77048547 L19.7486407,1.33770872 C19.4171198,1.03168934 19.4171198,0.535533906 19.7486407,0.229514531 C20.0801617,-0.0765048437 20.6176635,-0.0765048437 20.9491844,0.229514531 Z" id="Path" fill="#D8EBFF" fill-rule="nonzero"></path>
                    <path d="M6.25135926,0.229514531 C6.58288025,0.535533906 6.58288025,1.03168934 6.25135926,1.33770872 L1.44918445,5.77048547 C1.11766346,6.07650484 0.580161731,6.07650484 0.248640742,5.77048547 C-0.0828802473,5.46446609 -0.0828802473,4.96831066 0.248640742,4.66229128 L5.05081555,0.229514531 C5.38233654,-0.0765048437 5.91983827,-0.0765048437 6.25135926,0.229514531 Z" id="Path" fill="#D8EBFF" fill-rule="nonzero"></path>
                </g>
                <g id="propertie-copy" fill="#D8EBFF" fill-rule="nonzero">
                    <path d="M16.1008706,0 C16.6928463,0 17.1916407,0.490049085 17.2452352,1.12911894 L17.25,1.24337349 L17.25,11.3042169 L15.75,12.75 L15.75,1.5 L1.5,1.5 L1.5,22.5 L15.75,22.5 L15.75,21.0795181 L17.25,19.6048193 L17.25,22.7566265 C17.25,23.4120482 16.7840931,23.9385096 16.2042979,23.9949824 L16.1008706,24 L1.14912945,24 C0.557153671,24 0.0583592677,23.5099509 0.00476475298,22.8708811 L0,22.7566265 L0,1.24337349 C0,0.587951807 0.465906861,0.0614904061 1.04570207,0.00501760127 L1.14912945,0 L16.1008706,0 Z" id="Path"></path>
                    <path d="M12.5775738,17.6642857 L15.0061452,20.0928571 L14.3490024,20.75 C14.2847167,20.8142857 14.2204309,20.8464286 14.1561452,20.8705357 L14.0918595,20.8928571 L11.8918595,21.4071429 C11.5436452,21.4875 11.2205425,21.2162946 11.2521413,20.8524902 L11.2632881,20.7785714 L11.7775738,18.5785714 C11.7990024,18.4928571 11.8365024,18.4232143 11.8780202,18.3696429 L11.9204309,18.3214286 L12.5775738,17.6642857 Z" id="Path"></path>
                    <polygon id="Path" points="19.1220081 11.1300286 21.5466938 13.5540286 15.8300938 19.2722457 13.4054081 16.8482457"></polygon>
                    <path d="M10.5,15.75 C10.9142136,15.75 11.25,16.0857864 11.25,16.5 C11.25,16.9142136 10.9142136,17.25 10.5,17.25 L4.5,17.25 C4.08578644,17.25 3.75,16.9142136 3.75,16.5 C3.75,16.0857864 4.08578644,15.75 4.5,15.75 L10.5,15.75 Z" id="Path"></path>
                    <path d="M12.75,12 C13.1642136,12 13.5,12.3357864 13.5,12.75 C13.5,13.1642136 13.1642136,13.5 12.75,13.5 L4.5,13.5 C4.08578644,13.5 3.75,13.1642136 3.75,12.75 C3.75,12.3357864 4.08578644,12 4.5,12 L12.75,12 Z" id="Path"></path>
                    <path d="M21.7429452,9.096 L21.8061452,9.15 L23.5204309,10.8642857 C23.7004309,11.0442857 23.7184309,11.34 23.5744309,11.5223143 L23.5204309,11.5785714 L22.3775738,12.7214286 L19.9490024,10.2928571 L21.0918595,9.15 C21.2718595,8.97 21.5444309,8.952 21.7429452,9.096 Z" id="Path"></path>
                    <path d="M12.75,8.25 C13.1642136,8.25 13.5,8.58578644 13.5,9 C13.5,9.41421356 13.1642136,9.75 12.75,9.75 L4.5,9.75 C4.08578644,9.75 3.75,9.41421356 3.75,9 C3.75,8.58578644 4.08578644,8.25 4.5,8.25 L12.75,8.25 Z" id="Path"></path>
                    <path d="M12.75,4.5 C13.1642136,4.5 13.5,4.83578644 13.5,5.25 C13.5,5.66421356 13.1642136,6 12.75,6 L4.5,6 C4.08578644,6 3.75,5.66421356 3.75,5.25 C3.75,4.83578644 4.08578644,4.5 4.5,4.5 L12.75,4.5 Z" id="Path"></path>
                </g>
                <mask id="mask-7" fill="white">
                    <use xlink:href="#path-6"></use>
                </mask>
                <use id="preview-copy" fill="#D8EBFF" fill-rule="nonzero" xlink:href="#path-6"></use>
                <mask id="mask-9" fill="white">
                    <use xlink:href="#path-8"></use>
                </mask>
                <use id="Shape" fill="#D8EBFF" fill-rule="nonzero" xlink:href="#path-8"></use>
            </g>
        </g>
    </g>
</svg>