<?xml version="1.0" encoding="UTF-8"?>
<svg width="24px" height="24px" viewBox="0 0 24 24" version="1.1" xmlns="http://www.w3.org/2000/svg" xmlns:xlink="http://www.w3.org/1999/xlink">
    <!-- Generator: Sketch 61 (89581) - https://sketch.com -->
    <desc>Created with Sketch.</desc>
    <g id="Page-1" stroke="none" stroke-width="1" fill="none" fill-rule="evenodd">
        <g id="propertie-copy-2" fill="#D8EBFF" fill-rule="nonzero">
            <path d="M16.1008706,0 C16.6928463,0 17.1916407,0.490049085 17.2452352,1.12911894 L17.25,1.24337349 L17.25,11.3042169 L15.75,12.75 L15.75,1.5 L1.5,1.5 L1.5,22.5 L15.75,22.5 L15.75,21.0795181 L17.25,19.6048193 L17.25,22.7566265 C17.25,23.4120482 16.7840931,23.9385096 16.2042979,23.9949824 L16.1008706,24 L1.14912945,24 C0.557153671,24 0.0583592677,23.5099509 0.00476475298,22.8708811 L0,22.7566265 L0,1.24337349 C0,0.587951807 0.465906861,0.0614904061 1.04570207,0.00501760127 L1.14912945,0 L16.1008706,0 Z" id="Path"></path>
            <path d="M12.5775738,17.6642857 L15.0061452,20.0928571 L14.3490024,20.75 C14.2847167,20.8142857 14.2204309,20.8464286 14.1561452,20.8705357 L14.0918595,20.8928571 L11.8918595,21.4071429 C11.5436452,21.4875 11.2205425,21.2162946 11.2521413,20.8524902 L11.2632881,20.7785714 L11.7775738,18.5785714 C11.7990024,18.4928571 11.8365024,18.4232143 11.8780202,18.3696429 L11.9204309,18.3214286 L12.5775738,17.6642857 Z" id="Path"></path>
            <polygon id="Path" points="19.1220081 11.1300286 21.5466938 13.5540286 15.8300938 19.2722457 13.4054081 16.8482457"></polygon>
            <path d="M10.5,15.75 C10.9142136,15.75 11.25,16.0857864 11.25,16.5 C11.25,16.9142136 10.9142136,17.25 10.5,17.25 L4.5,17.25 C4.08578644,17.25 3.75,16.9142136 3.75,16.5 C3.75,16.0857864 4.08578644,15.75 4.5,15.75 L10.5,15.75 Z" id="Path"></path>
            <path d="M12.75,12 C13.1642136,12 13.5,12.3357864 13.5,12.75 C13.5,13.1642136 13.1642136,13.5 12.75,13.5 L4.5,13.5 C4.08578644,13.5 3.75,13.1642136 3.75,12.75 C3.75,12.3357864 4.08578644,12 4.5,12 L12.75,12 Z" id="Path"></path>
            <path d="M21.7429452,9.096 L21.8061452,9.15 L23.5204309,10.8642857 C23.7004309,11.0442857 23.7184309,11.34 23.5744309,11.5223143 L23.5204309,11.5785714 L22.3775738,12.7214286 L19.9490024,10.2928571 L21.0918595,9.15 C21.2718595,8.97 21.5444309,8.952 21.7429452,9.096 Z" id="Path"></path>
            <path d="M12.75,8.25 C13.1642136,8.25 13.5,8.58578644 13.5,9 C13.5,9.41421356 13.1642136,9.75 12.75,9.75 L4.5,9.75 C4.08578644,9.75 3.75,9.41421356 3.75,9 C3.75,8.58578644 4.08578644,8.25 4.5,8.25 L12.75,8.25 Z" id="Path"></path>
            <path d="M12.75,4.5 C13.1642136,4.5 13.5,4.83578644 13.5,5.25 C13.5,5.66421356 13.1642136,6 12.75,6 L4.5,6 C4.08578644,6 3.75,5.66421356 3.75,5.25 C3.75,4.83578644 4.08578644,4.5 4.5,4.5 L12.75,4.5 Z" id="Path"></path>
        </g>
    </g>
</svg>