<?xml version="1.0" encoding="UTF-8"?>
<svg width="30px" height="36px" viewBox="0 0 30 36" version="1.1" xmlns="http://www.w3.org/2000/svg" xmlns:xlink="http://www.w3.org/1999/xlink">
    <!-- Generator: Sketch 61 (89581) - https://sketch.com -->
    <desc>Created with Sketch.</desc>
    <defs>
        <linearGradient x1="50%" y1="1.00559544%" x2="50%" y2="100%" id="linearGradient-1">
            <stop stop-color="#5FCEFF" offset="0%"></stop>
            <stop stop-color="#5FCEFF" stop-opacity="0.1" offset="100%"></stop>
        </linearGradient>
        <path d="M15,36 C23.2842712,36 30,29.2842712 30,21 C30,15.7249543 25.4386189,9.10233744 16.3158567,1.1321495 L16.3158492,1.13215809 C15.5621708,0.473699804 14.4378116,0.473699871 13.6841333,1.13215825 C4.56137777,9.10234228 0,15.7249562 0,21 C0,29.2842712 6.71572875,36 15,36 Z" id="path-2"></path>
        <text id="text-3" font-family="Roboto-Bold, Roboto" font-size="16" font-weight="bold" fill="#C0EBFF">
            <tspan x="9.88671875" y="28">C</tspan>
        </text>
        <filter x="-54.5%" y="-31.6%" width="209.1%" height="163.2%" filterUnits="objectBoundingBox" id="filter-4">
            <feOffset dx="0" dy="0" in="SourceAlpha" result="shadowOffsetOuter1"></feOffset>
            <feGaussianBlur stdDeviation="2" in="shadowOffsetOuter1" result="shadowBlurOuter1"></feGaussianBlur>
            <feColorMatrix values="0 0 0 0 0   0 0 0 0 0   0 0 0 0 0  0 0 0 0.3 0" type="matrix" in="shadowBlurOuter1"></feColorMatrix>
        </filter>
    </defs>
    <g id="Page-1" stroke="none" stroke-width="1" fill="none" fill-rule="evenodd">
        <g id="cyan">
            <g id="Oval" fill-rule="nonzero">
                <use fill-opacity="0.5" fill="#5DCDFF" xlink:href="#path-2"></use>
                <path stroke="#5DCDFF" stroke-width="2" d="M15,35 C22.7319865,35 29,28.7319865 29,21 C29,16.0969594 24.5808139,9.68079386 15.6579326,1.88523375 C15.281086,1.55600569 14.7189038,1.55600701 14.3420661,1.88523492 C5.41918277,9.68079864 1,16.0969612 1,21 C1,28.7319865 7.2680135,35 15,35 Z" stroke-linejoin="square" fill="url(#linearGradient-1)" fill-rule="evenodd"></path>
            </g>
            <g id="c" fill="#C0EBFF" fill-opacity="1">
                <use filter="url(#filter-4)" xlink:href="#text-3"></use>
                <use xlink:href="#text-3"></use>
            </g>
        </g>
    </g>
</svg>