<?xml version="1.0" encoding="UTF-8"?>
<svg width="26px" height="22px" viewBox="0 0 26 22" version="1.1" xmlns="http://www.w3.org/2000/svg" xmlns:xlink="http://www.w3.org/1999/xlink">
    <!-- Generator: Sketch 61 (89581) - https://sketch.com -->
    <desc>Created with Sketch.</desc>
    <g id="Page-1" stroke="none" stroke-width="1" fill="none" fill-rule="evenodd">
        <g id="export-copy-2" transform="translate(1.000000, 1.000000)" fill="#D8EBFF" fill-rule="nonzero" stroke="#D8EBFF" stroke-width="0.2">
            <path d="M0.75,14 C1.13462688,14 1.45163037,14.2895301 1.4949542,14.6625342 L1.5,14.75 L1.5,18.5 C1.5,19.2907713 2.11190834,19.9386238 2.88805324,19.9958857 L3,20 L18,20 C18.7907713,20 19.4386238,19.3880917 19.4958857,18.6119468 L19.5,18.5 L19.5,15.5 C19.5,15.0857864 19.8357864,14.75 20.25,14.75 C20.6346269,14.75 20.9516304,15.0395301 20.9949542,15.4125342 L21,15.5 L21,18.5 C21,20.1066465 19.7370236,21.4183092 18.1497303,21.4963285 L18,21.5 L3,21.5 C1.39335346,21.5 0.081690843,20.2370236 0.00367148043,18.6497303 L0,18.5 L0,14.75 C0,14.3357864 0.335786438,14 0.75,14 Z" id="Path"></path>
            <path d="M15.0515377,10.5551678 C15.2296256,10.7401498 15.2828623,11.0181619 15.1864519,11.2597153 C15.0900414,11.5012687 14.8629435,11.658861 14.6109326,11.6590909 C14.4456263,11.6589399 14.2871437,11.5906929 14.1703274,11.4693541 L9.18234407,6.29471469 C8.93921864,6.04217715 8.93921864,5.63306592 9.18234407,5.38052839 L14.1703274,0.205888944 C14.3257617,0.0328376364 14.5598519,-0.0383964535 14.7807642,0.0201318576 C15.0016764,0.0786601686 15.1741772,0.257616128 15.2305943,0.486795188 C15.2870114,0.715974247 15.2183469,0.958824356 15.0515377,1.12007525 L11.13525,5.18175 L15.875,5.18181818 C20.3604096,5.18657857 23.9954066,8.95375734 24,13.6022727 C24,13.9600026 23.720178,14.25 23.375,14.25 C23.029822,14.25 22.75,13.9600026 22.75,13.6022727 C22.7454083,9.66921669 19.6700541,6.48203142 15.875,6.47727273 L11.12025,6.477 L15.0515377,10.5551678 Z" id="Path" transform="translate(16.500000, 7.125000) scale(-1, 1) translate(-16.500000, -7.125000) "></path>
        </g>
    </g>
</svg>