<?xml version="1.0" encoding="UTF-8"?>
<svg width="80px" height="80px" viewBox="0 0 80 80" version="1.1" xmlns="http://www.w3.org/2000/svg" xmlns:xlink="http://www.w3.org/1999/xlink">
    <!-- Generator: Sketch 61 (89581) - https://sketch.com -->
    <desc>Created with Sketch.</desc>
    <defs>
        <linearGradient x1="50%" y1="0%" x2="50%" y2="100%" id="linearGradient-1">
            <stop stop-color="#FFFFFF" offset="0%"></stop>
            <stop stop-color="#FFFFFF" stop-opacity="0" offset="100%"></stop>
        </linearGradient>
        <rect id="path-2" x="0" y="0" width="64" height="64" rx="8"></rect>
        <filter x="-20.3%" y="-17.2%" width="140.6%" height="140.6%" filterUnits="objectBoundingBox" id="filter-3">
            <feOffset dx="0" dy="2" in="SourceAlpha" result="shadowOffsetOuter1"></feOffset>
            <feGaussianBlur stdDeviation="4" in="shadowOffsetOuter1" result="shadowBlurOuter1"></feGaussianBlur>
            <feComposite in="shadowBlurOuter1" in2="SourceAlpha" operator="out" result="shadowBlurOuter1"></feComposite>
            <feColorMatrix values="0 0 0 0 0   0 0 0 0 0   0 0 0 0 0  0 0 0 0.2 0" type="matrix" in="shadowBlurOuter1"></feColorMatrix>
        </filter>
    </defs>
    <g id="Page-1" stroke="none" stroke-width="1" fill="none" fill-rule="evenodd">
        <g id="2" transform="translate(8.000000, 6.000000)">
            <g id="bg-copy-48">
                <use fill="black" fill-opacity="1" filter="url(#filter-3)" xlink:href="#path-2"></use>
                <use fill="#005BB1" fill-rule="evenodd" xlink:href="#path-2"></use>
                <rect stroke-opacity="0.7" stroke="#CCE5FF" stroke-width="2" stroke-linejoin="square" fill-opacity="0.3" fill="url(#linearGradient-1)" fill-rule="evenodd" x="1" y="1" width="62" height="62" rx="8"></rect>
            </g>
            <path d="M23.852,40.254 C25.137,41.697 26.8,42.796 28.685,43.397 C27.617,42.265 26.753,40.598 26.188,38.594 C25.235,39.054 24.439,39.62 23.852,40.254 M23.163,39.398 C23.878,38.662 24.817,38.022 25.921,37.517 C25.654,36.282 25.494,34.945 25.461,33.546 L21.104,33.546 C21.212,35.726 21.959,37.738 23.163,39.398 M21.104,32.455 L25.461,32.455 C25.494,31.055 25.654,29.718 25.921,28.484 C24.817,27.978 23.878,27.338 23.163,26.603 C21.959,28.262 21.212,30.275 21.104,32.455 M23.852,25.746 C24.439,26.38 25.235,26.946 26.188,27.406 C26.753,25.403 27.617,23.735 28.685,22.604 C26.8,23.204 25.137,24.303 23.852,25.746 M40.148,25.746 C38.863,24.303 37.2,23.204 35.315,22.604 C36.383,23.735 37.247,25.403 37.811,27.406 C38.765,26.946 39.561,26.38 40.148,25.746 M40.837,26.603 C40.122,27.338 39.183,27.978 38.079,28.484 C38.347,29.718 38.506,31.055 38.539,32.455 L42.895,32.455 C42.788,30.275 42.041,28.262 40.837,26.603 M42.895,33.546 L38.539,33.546 C38.506,34.945 38.347,36.282 38.079,37.517 C39.183,38.022 40.122,38.662 40.837,39.398 C42.041,37.738 42.788,35.726 42.895,33.546 M40.148,40.254 C39.561,39.62 38.765,39.054 37.811,38.594 C37.247,40.598 36.383,42.265 35.315,43.397 C37.2,42.796 38.863,41.697 40.148,40.254 M31.455,43.853 L31.455,37.373 C29.895,37.428 28.449,37.714 27.201,38.169 C28.058,41.311 29.661,43.483 31.455,43.853 M26.947,37.102 C28.293,36.627 29.824,36.335 31.455,36.282 L31.455,33.546 L26.552,33.546 C26.583,34.807 26.722,36.002 26.947,37.102 M26.552,32.455 L31.455,32.455 L31.455,29.718 C29.824,29.665 28.293,29.374 26.947,28.898 C26.722,29.998 26.583,31.193 26.552,32.455 M27.201,27.832 C28.449,28.286 29.895,28.572 31.455,28.627 L31.455,22.147 C29.661,22.518 28.058,24.689 27.201,27.832 M32.545,22.147 L32.545,28.627 C34.105,28.572 35.551,28.286 36.799,27.832 C35.942,24.689 34.339,22.518 32.545,22.147 M37.053,28.898 C35.707,29.374 34.176,29.665 32.545,29.718 L32.545,32.455 L37.448,32.455 C37.416,31.193 37.278,29.998 37.053,28.898 M37.448,33.546 L32.545,33.546 L32.545,36.282 C34.176,36.335 35.707,36.627 37.053,37.102 C37.278,36.002 37.416,34.807 37.448,33.546 M36.799,38.169 C35.551,37.714 34.105,37.428 32.545,37.373 L32.545,43.853 C34.339,43.483 35.942,41.311 36.799,38.169 M32,45 C25.373,45 20,39.628 20,33 C20,26.373 25.373,21 32,21 C38.627,21 44,26.373 44,33 C44,39.628 38.627,45 32,45" id="Fill-1" fill="#D8EBFF"></path>
        </g>
    </g>
</svg>