<?xml version="1.0" encoding="UTF-8"?>
<svg width="16px" height="16px" viewBox="0 0 16 16" version="1.1" xmlns="http://www.w3.org/2000/svg" xmlns:xlink="http://www.w3.org/1999/xlink">
    <!-- Generator: Sketch 61 (89581) - https://sketch.com -->
    <desc>Created with Sketch.</desc>
    <g id="Page-1" stroke="none" stroke-width="1" fill="none" fill-rule="evenodd">
        <g id="icon-copy-2" fill="#73B7FF" fill-rule="nonzero">
            <path d="M8,16 C12.418278,16 16,12.418278 16,8 C16,3.581722 12.418278,0 8,0 C3.581722,0 0,3.581722 0,8 C0,12.418278 3.581722,16 8,16 Z M8,15 C4.13400675,15 1,11.8659932 1,8 C1,4.13400675 4.13400675,1 8,1 C11.8659932,1 15,4.13400675 15,8 C15,11.8659932 11.8659932,15 8,15 Z" id="Oval-Copy-2"></path>
            <g id="time-icon" transform="translate(7.000000, 4.000000)">
                <rect id="Rectangle" x="0" y="0" width="1" height="5" rx="0.5"></rect>
                <rect id="Rectangle-Copy" transform="translate(2.500000, 4.500000) rotate(-270.000000) translate(-2.500000, -4.500000) " x="2" y="2" width="1" height="5" rx="0.5"></rect>
            </g>
        </g>
    </g>
</svg>