<svg xmlns="http://www.w3.org/2000/svg" viewBox="0 0 56 56"><defs><style>.cls-1{fill:none;opacity:0.5;}.cls-2{fill:#5bb254;}</style></defs><title>Ready</title><g id="Layer_2" data-name="Layer 2"><g id="Layer_1-2" data-name="Layer 1"><rect class="cls-1" width="56" height="56"/><g id="_Group_" data-name="&lt;Group&gt;"><g id="_Group_2" data-name="&lt;Group&gt;"><rect class="cls-2" x="24.28" y="2" width="7.43" height="14.86" rx="1.37" ry="1.37"/></g><g id="_Group_3" data-name="&lt;Group&gt;"><rect class="cls-2" x="24.28" y="39.14" width="7.43" height="14.86" rx="1.37" ry="1.37"/></g><g id="_Group_4" data-name="&lt;Group&gt;"><rect class="cls-2" x="39.14" y="24.28" width="14.86" height="7.43" rx="1.37" ry="1.37"/></g><g id="_Group_5" data-name="&lt;Group&gt;"><rect class="cls-2" x="2" y="24.28" width="14.86" height="7.43" rx="1.37" ry="1.37"/></g><g id="_Group_6" data-name="&lt;Group&gt;"><path class="cls-2" d="M39.48,34.24a1.38,1.38,0,0,0-1.94,0l-3.32,3.31a1.38,1.38,0,0,0,0,1.94l8.57,8.56a1.37,1.37,0,0,0,1.93,0L48,44.74a1.36,1.36,0,0,0,0-1.94Z"/></g><g id="_Group_7" data-name="&lt;Group&gt;"><path class="cls-2" d="M16.54,21.81a1.37,1.37,0,0,0,1.93,0l3.32-3.31a1.37,1.37,0,0,0,0-1.93L13.22,8a1.35,1.35,0,0,0-1.93,0L8,11.31a1.36,1.36,0,0,0,0,1.94Z"/></g><g id="_Group_8" data-name="&lt;Group&gt;"><path class="cls-2" d="M18.49,34.25a1.37,1.37,0,0,0-1.94,0L8,42.81a1.37,1.37,0,0,0,0,1.93l3.31,3.32a1.35,1.35,0,0,0,1.93,0L21.8,39.5a1.38,1.38,0,0,0,0-1.94Z"/></g><g id="_Group_9" data-name="&lt;Group&gt;"><path class="cls-2" d="M37.53,21.81a1.37,1.37,0,0,0,1.94,0L48,13.25a1.37,1.37,0,0,0,0-1.94L44.72,8a1.37,1.37,0,0,0-1.93,0l-8.56,8.57a1.35,1.35,0,0,0,0,1.93Z"/></g></g></g></g></svg>