<?xml version="1.0" encoding="UTF-8"?>
<svg width="62px" height="15px" viewBox="0 0 62 15" version="1.1" xmlns="http://www.w3.org/2000/svg" xmlns:xlink="http://www.w3.org/1999/xlink">
    <!-- Generator: Sketch 57.1 (83088) - https://sketch.com -->
    <desc>Created with Sketch.</desc>
    <g id="Page-1" stroke="none" stroke-width="1" fill="none" fill-rule="evenodd">
        <g id="2-copy-6" fill="#D8EBFF">
            <polygon id="Path" opacity="0.200000003" transform="translate(5.000000, 14.000000) rotate(-270.000000) translate(-5.000000, -14.000000) " points="4 14.5 6 14.5 6 13.5 4 13.5"></polygon>
            <polygon id="Path" opacity="0.5" transform="translate(9.000000, 13.500000) rotate(-270.000000) translate(-9.000000, -13.500000) " points="7.5 14 10.5 14 10.5 13 7.5 13"></polygon>
            <polygon id="Path" opacity="0.200000003" transform="translate(13.000000, 14.000000) rotate(-270.000000) translate(-13.000000, -14.000000) " points="12 14.5 14 14.5 14 13.5 12 13.5"></polygon>
            <polygon id="Path" opacity="0.5" transform="translate(17.000000, 13.500000) rotate(-270.000000) translate(-17.000000, -13.500000) " points="15.5 14 18.5 14 18.5 13 15.5 13"></polygon>
            <polygon id="Path" opacity="0.200000003" transform="translate(21.000000, 14.000000) rotate(-270.000000) translate(-21.000000, -14.000000) " points="20 14.5 22 14.5 22 13.5 20 13.5"></polygon>
            <polygon id="Path" opacity="0.5" transform="translate(25.000000, 13.500000) rotate(-270.000000) translate(-25.000000, -13.500000) " points="23.5 14 26.5 14 26.5 13 23.5 13"></polygon>
            <polygon id="Path" opacity="0.200000003" transform="translate(29.000000, 14.000000) rotate(-270.000000) translate(-29.000000, -14.000000) " points="28 14.5 30 14.5 30 13.5 28 13.5"></polygon>
            <polygon id="Path" opacity="0.5" transform="translate(33.000000, 13.500000) rotate(-270.000000) translate(-33.000000, -13.500000) " points="31.5 14 34.5 14 34.5 13 31.5 13"></polygon>
            <polygon id="Path" opacity="0.200000003" transform="translate(37.000000, 14.000000) rotate(-270.000000) translate(-37.000000, -14.000000) " points="36 14.5 38 14.5 38 13.5 36 13.5"></polygon>
            <polygon id="Path" opacity="0.5" transform="translate(41.000000, 13.500000) rotate(-270.000000) translate(-41.000000, -13.500000) " points="39.5 14 42.5 14 42.5 13 39.5 13"></polygon>
            <polygon id="Path" opacity="0.200000003" transform="translate(45.000000, 14.000000) rotate(-270.000000) translate(-45.000000, -14.000000) " points="44 14.5 46 14.5 46 13.5 44 13.5"></polygon>
            <polygon id="Path" opacity="0.5" transform="translate(49.000000, 13.500000) rotate(-270.000000) translate(-49.000000, -13.500000) " points="47.5 14 50.5 14 50.5 13 47.5 13"></polygon>
            <polygon id="Path" opacity="0.5" transform="translate(57.000000, 13.500000) rotate(-270.000000) translate(-57.000000, -13.500000) " points="55.5 14 58.5 14 58.5 13 55.5 13"></polygon>
            <polygon id="Path" opacity="0.200000003" transform="translate(53.000000, 14.000000) rotate(-270.000000) translate(-53.000000, -14.000000) " points="52 14.5 54 14.5 54 13.5 52 13.5"></polygon>
            <polygon id="Path" opacity="0.200000003" transform="translate(61.000000, 14.000000) rotate(-270.000000) translate(-61.000000, -14.000000) " points="60 14.5 62 14.5 62 13.5 60 13.5"></polygon>
            <polygon id="Path" opacity="0.5" transform="translate(1.000000, 7.500000) rotate(-270.000000) translate(-1.000000, -7.500000) " points="-6.5 8 8.5 8 8.5 7 -6.5 7"></polygon>
            <text id="850" opacity="0.699999988" font-family="Roboto-Regular, Roboto" font-size="10" font-weight="normal" line-spacing="11">
                <tspan x="4.5" y="9">850</tspan>
            </text>
        </g>
    </g>
</svg>