<?xml version="1.0" encoding="UTF-8"?>
<svg width="58px" height="15px" viewBox="0 0 58 15" version="1.1" xmlns="http://www.w3.org/2000/svg" xmlns:xlink="http://www.w3.org/1999/xlink">
    <!-- Generator: Sketch 57.1 (83088) - https://sketch.com -->
    <desc>Created with Sketch.</desc>
    <g id="Page-1" stroke="none" stroke-width="1" fill="none" fill-rule="evenodd">
        <g id="1" fill="#D8EBFF">
            <polygon id="Path" opacity="0.200000003" transform="translate(1.000000, 14.000000) rotate(-270.000000) translate(-1.000000, -14.000000) " points="0 14.5 2 14.5 2 13.5 0 13.5"></polygon>
            <polygon id="Path" opacity="0.5" transform="translate(5.000000, 13.500000) rotate(-270.000000) translate(-5.000000, -13.500000) " points="3.5 14 6.5 14 6.5 13 3.5 13"></polygon>
            <polygon id="Path" opacity="0.200000003" transform="translate(9.000000, 14.000000) rotate(-270.000000) translate(-9.000000, -14.000000) " points="8 14.5 10 14.5 10 13.5 8 13.5"></polygon>
            <polygon id="Path" opacity="0.5" transform="translate(13.000000, 13.500000) rotate(-270.000000) translate(-13.000000, -13.500000) " points="11.5 14 14.5 14 14.5 13 11.5 13"></polygon>
            <polygon id="Path" opacity="0.200000003" transform="translate(17.000000, 14.000000) rotate(-270.000000) translate(-17.000000, -14.000000) " points="16 14.5 18 14.5 18 13.5 16 13.5"></polygon>
            <polygon id="Path" opacity="0.5" transform="translate(21.000000, 13.500000) rotate(-270.000000) translate(-21.000000, -13.500000) " points="19.5 14 22.5 14 22.5 13 19.5 13"></polygon>
            <polygon id="Path" opacity="0.200000003" transform="translate(25.000000, 14.000000) rotate(-270.000000) translate(-25.000000, -14.000000) " points="24 14.5 26 14.5 26 13.5 24 13.5"></polygon>
            <polygon id="Path" opacity="0.5" transform="translate(29.000000, 13.500000) rotate(-270.000000) translate(-29.000000, -13.500000) " points="27.5 14 30.5 14 30.5 13 27.5 13"></polygon>
            <polygon id="Path" opacity="0.200000003" transform="translate(33.000000, 14.000000) rotate(-270.000000) translate(-33.000000, -14.000000) " points="32 14.5 34 14.5 34 13.5 32 13.5"></polygon>
            <polygon id="Path" opacity="0.5" transform="translate(37.000000, 13.500000) rotate(-270.000000) translate(-37.000000, -13.500000) " points="35.5 14 38.5 14 38.5 13 35.5 13"></polygon>
            <polygon id="Path" opacity="0.200000003" transform="translate(41.000000, 14.000000) rotate(-270.000000) translate(-41.000000, -14.000000) " points="40 14.5 42 14.5 42 13.5 40 13.5"></polygon>
            <polygon id="Path" opacity="0.5" transform="translate(45.000000, 13.500000) rotate(-270.000000) translate(-45.000000, -13.500000) " points="43.5 14 46.5 14 46.5 13 43.5 13"></polygon>
            <polygon id="Path" opacity="0.5" transform="translate(53.000000, 13.500000) rotate(-270.000000) translate(-53.000000, -13.500000) " points="51.5 14 54.5 14 54.5 13 51.5 13"></polygon>
            <polygon id="Path" opacity="0.200000003" transform="translate(49.000000, 14.000000) rotate(-270.000000) translate(-49.000000, -14.000000) " points="48 14.5 50 14.5 50 13.5 48 13.5"></polygon>
            <polygon id="Path" opacity="0.200000003" transform="translate(57.000000, 14.000000) rotate(-270.000000) translate(-57.000000, -14.000000) " points="56 14.5 58 14.5 58 13.5 56 13.5"></polygon>
            <text id="0" opacity="0.699999988" font-family="Roboto-Regular, Roboto" font-size="10" font-weight="normal" line-spacing="11">
                <tspan x="0.5" y="9">0</tspan>
            </text>
        </g>
    </g>
</svg>